<svg width="44" height="44" viewBox="0 0 11.642 11.642" xmlns="http://www.w3.org/2000/svg"><circle cx="5.821" cy="5.821" r="5.821" fill="#745206" fill-rule="evenodd"/><path d="M5.594 3.693q-.402 0-.688-.276-.275-.285-.275-.72 0-.412.296-.698t.688-.286q.392 0 .667.286.285.286.285.699 0 .423-.296.709t-.677.286Zm.02.444q.403 0 .625.138.223.137.223.54 0 .063-.043.93-.031.868-.031 1.302 0 1.503.18 2.043-.445.138-.879.138-.497 0-.698-.17-.191-.18-.191-.518 0-.17.01-.794.022-.625.022-.995 0-1.513-.074-2.476.402-.138.857-.138z" aria-label="i" fill="#fcfbf8" stroke-width=".265"/></svg>